<svg xmlns="http://www.w3.org/2000/svg" xmlns:xlink="http://www.w3.org/1999/xlink" viewBox="0 0 48 48">
  <defs>
    <linearGradient id="soma-gradient" x1="0%" y1="0%" x2="100%" y2="100%">
      <stop offset="0%" style="stop-color:#1DB954"/>
      <stop offset="100%" style="stop-color:#1ed760"/>
    </linearGradient>
  </defs>
  <circle cx="24" cy="24" r="24" fill="url(#soma-gradient)"/>
  <path d="M34.1 32.2c-.3 0-.5-.1-.7-.2-6.5-4-14.6-4.2-24.1-2.4-.4.1-.8-.2-.9-.6-.1-.4.2-.8.6-.9 10.1-2 18.8-1.7 25.8 2.5.4.2.5.7.3 1-.2.4-.6.6-1 .6zm2.5-5.6c-.3 0-.6-.1-.8-.3-7.5-4.6-18.8-5.9-27.6-3.2-.5.1-1-.1-1.2-.6-.1-.5.1-1 .6-1.2 10-3.1 22.3-1.6 30.6 3.7.4.3.5.8.3 1.3-.2.3-.5.3-.9.3zm.4-5.8c-.2 0-.5-.1-.7-.2-8.4-5-22.3-5.5-30.3-3-.5.2-1.1-.1-1.3-.6-.2-.5.1-1.1.6-1.3 9.1-2.8 24.2-2.2 33.7 3.5.5.3.6.9.4 1.4-.2.1-.3.2-.4.2z" fill="#fff"/>
</svg>
